<?xml version="1.0" encoding="utf-8"?>
<!-- Generator: Adobe Illustrator 25.0.1, SVG Export Plug-In . SVG Version: 6.00 Build 0)  -->
<svg version="1.1" id="Layer_1" xmlns="http://www.w3.org/2000/svg" xmlns:xlink="http://www.w3.org/1999/xlink" x="0px" y="0px"
	 viewBox="0 0 24 24" style="enable-background:new 0 0 24 24;" xml:space="preserve">
<style type="text/css">
	.st0{fill:#CECECE;}
</style>
<g>
	<path class="st0" d="M10.7,20c-0.4,0-0.8-0.2-1-0.5l-5.3-6.7c-0.5-0.6-0.4-1.4,0.2-1.9c0.6-0.5,1.4-0.4,1.9,0.2l3.9,4.9
		c0.1,0.1,0.3,0.1,0.4,0l6.8-11.3c0.4-0.6,1.2-0.8,1.8-0.5C20,4.6,20.2,5.4,19.8,6l-8,13.3C11.6,19.7,11.2,20,10.7,20
		C10.7,20,10.7,20,10.7,20z"/>
</g>
</svg>
